<mxfile host="app.diagrams.net" modified="2024-02-27T12:52:39.534Z" agent="Mozilla/5.0 (Windows NT 10.0; Win64; x64) AppleWebKit/537.36 (KHTML, like Gecko) Chrome/121.0.0.0 Safari/537.36" etag="UT0uD6ukT9mQEWwXXZhK" version="23.1.5" type="github">
  <diagram name="第 1 页" id="O3aG8khd8Pw3HTs3YGyl">
    <mxGraphModel dx="1436" dy="853" grid="1" gridSize="10" guides="1" tooltips="1" connect="1" arrows="1" fold="1" page="1" pageScale="1" pageWidth="827" pageHeight="1169" math="0" shadow="0">
      <root>
        <mxCell id="0" />
        <mxCell id="1" parent="0" />
        <mxCell id="R8ICD43r1_GA5q7lz1Dn-1" value="" style="rounded=0;whiteSpace=wrap;html=1;" vertex="1" parent="1">
          <mxGeometry x="30" y="80" width="490" height="590" as="geometry" />
        </mxCell>
        <mxCell id="R8ICD43r1_GA5q7lz1Dn-2" value="&lt;span style=&quot;font-size: 16px;&quot;&gt;图. Logo&lt;/span&gt;" style="rounded=0;whiteSpace=wrap;html=1;" vertex="1" parent="1">
          <mxGeometry x="350" y="180" width="100" height="40" as="geometry" />
        </mxCell>
        <mxCell id="R8ICD43r1_GA5q7lz1Dn-3" value="" style="rounded=0;whiteSpace=wrap;html=1;" vertex="1" parent="1">
          <mxGeometry x="340" y="310" width="120" height="20" as="geometry" />
        </mxCell>
        <mxCell id="R8ICD43r1_GA5q7lz1Dn-4" value="" style="rounded=0;whiteSpace=wrap;html=1;" vertex="1" parent="1">
          <mxGeometry x="340" y="365" width="120" height="20" as="geometry" />
        </mxCell>
        <mxCell id="R8ICD43r1_GA5q7lz1Dn-5" value="&lt;font style=&quot;font-size: 16px;&quot;&gt;登录&lt;/font&gt;" style="text;html=1;align=center;verticalAlign=middle;whiteSpace=wrap;rounded=0;" vertex="1" parent="1">
          <mxGeometry x="370" y="240" width="60" height="30" as="geometry" />
        </mxCell>
        <mxCell id="R8ICD43r1_GA5q7lz1Dn-6" value="用户名" style="text;html=1;align=center;verticalAlign=middle;whiteSpace=wrap;rounded=0;" vertex="1" parent="1">
          <mxGeometry x="330" y="280" width="60" height="30" as="geometry" />
        </mxCell>
        <mxCell id="R8ICD43r1_GA5q7lz1Dn-7" value="密码" style="text;html=1;align=center;verticalAlign=middle;whiteSpace=wrap;rounded=0;" vertex="1" parent="1">
          <mxGeometry x="320" y="335" width="60" height="30" as="geometry" />
        </mxCell>
        <mxCell id="R8ICD43r1_GA5q7lz1Dn-9" value="&lt;font style=&quot;font-size: 16px;&quot;&gt;登录&lt;/font&gt;" style="rounded=0;whiteSpace=wrap;html=1;fillColor=#dae8fc;strokeColor=#6c8ebf;" vertex="1" parent="1">
          <mxGeometry x="360" y="420" width="90" height="30" as="geometry" />
        </mxCell>
        <mxCell id="R8ICD43r1_GA5q7lz1Dn-11" value="&lt;span style=&quot;font-size: 16px;&quot;&gt;注册&lt;/span&gt;" style="rounded=0;whiteSpace=wrap;html=1;" vertex="1" parent="1">
          <mxGeometry x="360" y="460" width="90" height="30" as="geometry" />
        </mxCell>
        <mxCell id="R8ICD43r1_GA5q7lz1Dn-12" value="xxx平台" style="text;html=1;align=center;verticalAlign=middle;whiteSpace=wrap;rounded=0;" vertex="1" parent="1">
          <mxGeometry x="375" y="555" width="60" height="30" as="geometry" />
        </mxCell>
        <mxCell id="R8ICD43r1_GA5q7lz1Dn-13" value="版权所有@xxx大学" style="text;html=1;align=center;verticalAlign=middle;whiteSpace=wrap;rounded=0;" vertex="1" parent="1">
          <mxGeometry x="375" y="585" width="110" height="30" as="geometry" />
        </mxCell>
        <mxCell id="R8ICD43r1_GA5q7lz1Dn-14" value="&lt;span style=&quot;font-size: 16px;&quot;&gt;图&lt;/span&gt;" style="rounded=0;whiteSpace=wrap;html=1;" vertex="1" parent="1">
          <mxGeometry x="90" y="270" width="140" height="150" as="geometry" />
        </mxCell>
        <mxCell id="R8ICD43r1_GA5q7lz1Dn-15" value="&lt;span style=&quot;font-size: 16px;&quot;&gt;外部连接&lt;br&gt;外部连接&lt;br&gt;外部连接&lt;br&gt;&lt;/span&gt;" style="text;html=1;align=center;verticalAlign=middle;whiteSpace=wrap;rounded=0;" vertex="1" parent="1">
          <mxGeometry x="50" y="510" width="160" height="100" as="geometry" />
        </mxCell>
        <mxCell id="R8ICD43r1_GA5q7lz1Dn-20" style="edgeStyle=orthogonalEdgeStyle;rounded=0;orthogonalLoop=1;jettySize=auto;html=1;exitX=1;exitY=0.5;exitDx=0;exitDy=0;entryX=0;entryY=0.5;entryDx=0;entryDy=0;" edge="1" parent="1" source="R8ICD43r1_GA5q7lz1Dn-17" target="R8ICD43r1_GA5q7lz1Dn-19">
          <mxGeometry relative="1" as="geometry" />
        </mxCell>
        <mxCell id="R8ICD43r1_GA5q7lz1Dn-21" value="识别" style="edgeLabel;html=1;align=center;verticalAlign=middle;resizable=0;points=[];" vertex="1" connectable="0" parent="R8ICD43r1_GA5q7lz1Dn-20">
          <mxGeometry x="-0.0381" y="4" relative="1" as="geometry">
            <mxPoint as="offset" />
          </mxGeometry>
        </mxCell>
        <mxCell id="R8ICD43r1_GA5q7lz1Dn-17" value="论文、PDF" style="rounded=0;whiteSpace=wrap;html=1;" vertex="1" parent="1">
          <mxGeometry x="120" y="1670" width="80" height="30" as="geometry" />
        </mxCell>
        <mxCell id="R8ICD43r1_GA5q7lz1Dn-27" style="edgeStyle=orthogonalEdgeStyle;rounded=0;orthogonalLoop=1;jettySize=auto;html=1;entryX=0;entryY=0.5;entryDx=0;entryDy=0;" edge="1" parent="1" source="R8ICD43r1_GA5q7lz1Dn-19" target="R8ICD43r1_GA5q7lz1Dn-23">
          <mxGeometry relative="1" as="geometry">
            <mxPoint x="370" y="1685" as="targetPoint" />
          </mxGeometry>
        </mxCell>
        <mxCell id="R8ICD43r1_GA5q7lz1Dn-28" style="edgeStyle=orthogonalEdgeStyle;rounded=0;orthogonalLoop=1;jettySize=auto;html=1;exitX=1;exitY=0.5;exitDx=0;exitDy=0;entryX=0;entryY=0.5;entryDx=0;entryDy=0;" edge="1" parent="1" source="R8ICD43r1_GA5q7lz1Dn-19" target="R8ICD43r1_GA5q7lz1Dn-24">
          <mxGeometry relative="1" as="geometry" />
        </mxCell>
        <mxCell id="R8ICD43r1_GA5q7lz1Dn-29" value="提取" style="edgeLabel;html=1;align=center;verticalAlign=middle;resizable=0;points=[];" vertex="1" connectable="0" parent="R8ICD43r1_GA5q7lz1Dn-28">
          <mxGeometry x="-0.63" y="1" relative="1" as="geometry">
            <mxPoint as="offset" />
          </mxGeometry>
        </mxCell>
        <mxCell id="R8ICD43r1_GA5q7lz1Dn-19" value="txt、表格" style="rounded=0;whiteSpace=wrap;html=1;" vertex="1" parent="1">
          <mxGeometry x="270" y="1670" width="80" height="30" as="geometry" />
        </mxCell>
        <mxCell id="R8ICD43r1_GA5q7lz1Dn-39" style="edgeStyle=orthogonalEdgeStyle;rounded=0;orthogonalLoop=1;jettySize=auto;html=1;exitX=1;exitY=0.5;exitDx=0;exitDy=0;entryX=0.5;entryY=0;entryDx=0;entryDy=0;" edge="1" parent="1" source="R8ICD43r1_GA5q7lz1Dn-23" target="R8ICD43r1_GA5q7lz1Dn-37">
          <mxGeometry relative="1" as="geometry" />
        </mxCell>
        <mxCell id="R8ICD43r1_GA5q7lz1Dn-23" value="表格数据" style="rounded=0;whiteSpace=wrap;html=1;" vertex="1" parent="1">
          <mxGeometry x="426.86" y="1640" width="80" height="30" as="geometry" />
        </mxCell>
        <mxCell id="R8ICD43r1_GA5q7lz1Dn-31" style="edgeStyle=orthogonalEdgeStyle;rounded=0;orthogonalLoop=1;jettySize=auto;html=1;exitX=1;exitY=0.5;exitDx=0;exitDy=0;entryX=0;entryY=0.5;entryDx=0;entryDy=0;" edge="1" parent="1" source="R8ICD43r1_GA5q7lz1Dn-24" target="R8ICD43r1_GA5q7lz1Dn-30">
          <mxGeometry relative="1" as="geometry" />
        </mxCell>
        <mxCell id="R8ICD43r1_GA5q7lz1Dn-32" value="模型自动标注" style="edgeLabel;html=1;align=center;verticalAlign=middle;resizable=0;points=[];" vertex="1" connectable="0" parent="R8ICD43r1_GA5q7lz1Dn-31">
          <mxGeometry x="-0.1793" relative="1" as="geometry">
            <mxPoint as="offset" />
          </mxGeometry>
        </mxCell>
        <mxCell id="R8ICD43r1_GA5q7lz1Dn-24" value="txt数据" style="rounded=0;whiteSpace=wrap;html=1;" vertex="1" parent="1">
          <mxGeometry x="426.86" y="1700" width="80" height="30" as="geometry" />
        </mxCell>
        <mxCell id="R8ICD43r1_GA5q7lz1Dn-35" style="edgeStyle=orthogonalEdgeStyle;rounded=0;orthogonalLoop=1;jettySize=auto;html=1;exitX=0.5;exitY=1;exitDx=0;exitDy=0;entryX=0.5;entryY=0;entryDx=0;entryDy=0;" edge="1" parent="1" source="R8ICD43r1_GA5q7lz1Dn-30" target="R8ICD43r1_GA5q7lz1Dn-34">
          <mxGeometry relative="1" as="geometry" />
        </mxCell>
        <mxCell id="R8ICD43r1_GA5q7lz1Dn-36" value="人工修改" style="edgeLabel;html=1;align=center;verticalAlign=middle;resizable=0;points=[];" vertex="1" connectable="0" parent="R8ICD43r1_GA5q7lz1Dn-35">
          <mxGeometry x="-0.1619" y="1" relative="1" as="geometry">
            <mxPoint as="offset" />
          </mxGeometry>
        </mxCell>
        <mxCell id="R8ICD43r1_GA5q7lz1Dn-38" style="edgeStyle=orthogonalEdgeStyle;rounded=0;orthogonalLoop=1;jettySize=auto;html=1;exitX=1;exitY=0.5;exitDx=0;exitDy=0;entryX=0;entryY=0.5;entryDx=0;entryDy=0;" edge="1" parent="1" source="R8ICD43r1_GA5q7lz1Dn-30" target="R8ICD43r1_GA5q7lz1Dn-37">
          <mxGeometry relative="1" as="geometry" />
        </mxCell>
        <mxCell id="R8ICD43r1_GA5q7lz1Dn-30" value="可视化" style="rounded=0;whiteSpace=wrap;html=1;" vertex="1" parent="1">
          <mxGeometry x="610" y="1700" width="80" height="30" as="geometry" />
        </mxCell>
        <mxCell id="R8ICD43r1_GA5q7lz1Dn-34" value="重新训练模型" style="rounded=0;whiteSpace=wrap;html=1;" vertex="1" parent="1">
          <mxGeometry x="610" y="1780" width="80" height="30" as="geometry" />
        </mxCell>
        <mxCell id="R8ICD43r1_GA5q7lz1Dn-44" style="edgeStyle=orthogonalEdgeStyle;rounded=0;orthogonalLoop=1;jettySize=auto;html=1;exitX=1;exitY=0.5;exitDx=0;exitDy=0;entryX=0;entryY=0.5;entryDx=0;entryDy=0;" edge="1" parent="1" source="R8ICD43r1_GA5q7lz1Dn-37" target="R8ICD43r1_GA5q7lz1Dn-40">
          <mxGeometry relative="1" as="geometry" />
        </mxCell>
        <mxCell id="R8ICD43r1_GA5q7lz1Dn-46" style="edgeStyle=orthogonalEdgeStyle;rounded=0;orthogonalLoop=1;jettySize=auto;html=1;exitX=1;exitY=0.5;exitDx=0;exitDy=0;entryX=0;entryY=0.5;entryDx=0;entryDy=0;" edge="1" parent="1" source="R8ICD43r1_GA5q7lz1Dn-37" target="R8ICD43r1_GA5q7lz1Dn-41">
          <mxGeometry relative="1" as="geometry" />
        </mxCell>
        <mxCell id="R8ICD43r1_GA5q7lz1Dn-37" value="存入数据库" style="rounded=0;whiteSpace=wrap;html=1;" vertex="1" parent="1">
          <mxGeometry x="720" y="1700" width="80" height="30" as="geometry" />
        </mxCell>
        <mxCell id="R8ICD43r1_GA5q7lz1Dn-40" value="性能预测" style="rounded=0;whiteSpace=wrap;html=1;" vertex="1" parent="1">
          <mxGeometry x="850" y="1680" width="80" height="30" as="geometry" />
        </mxCell>
        <mxCell id="R8ICD43r1_GA5q7lz1Dn-41" value="知识图谱" style="rounded=0;whiteSpace=wrap;html=1;" vertex="1" parent="1">
          <mxGeometry x="850" y="1720" width="80" height="30" as="geometry" />
        </mxCell>
        <mxCell id="R8ICD43r1_GA5q7lz1Dn-47" value="" style="rounded=0;whiteSpace=wrap;html=1;" vertex="1" parent="1">
          <mxGeometry x="560" y="80" width="490" height="590" as="geometry" />
        </mxCell>
        <mxCell id="R8ICD43r1_GA5q7lz1Dn-48" value="&lt;span style=&quot;font-size: 16px;&quot;&gt;图. Logo&lt;/span&gt;" style="rounded=0;whiteSpace=wrap;html=1;" vertex="1" parent="1">
          <mxGeometry x="880" y="180" width="100" height="40" as="geometry" />
        </mxCell>
        <mxCell id="R8ICD43r1_GA5q7lz1Dn-56" value="xxx平台" style="text;html=1;align=center;verticalAlign=middle;whiteSpace=wrap;rounded=0;" vertex="1" parent="1">
          <mxGeometry x="905" y="555" width="60" height="30" as="geometry" />
        </mxCell>
        <mxCell id="R8ICD43r1_GA5q7lz1Dn-57" value="版权所有@xxx大学" style="text;html=1;align=center;verticalAlign=middle;whiteSpace=wrap;rounded=0;" vertex="1" parent="1">
          <mxGeometry x="905" y="585" width="110" height="30" as="geometry" />
        </mxCell>
        <mxCell id="R8ICD43r1_GA5q7lz1Dn-58" value="&lt;span style=&quot;font-size: 16px;&quot;&gt;图&lt;/span&gt;" style="rounded=0;whiteSpace=wrap;html=1;" vertex="1" parent="1">
          <mxGeometry x="620" y="270" width="140" height="150" as="geometry" />
        </mxCell>
        <mxCell id="R8ICD43r1_GA5q7lz1Dn-59" value="&lt;span style=&quot;font-size: 16px;&quot;&gt;外部连接&lt;br&gt;外部连接&lt;br&gt;外部连接&lt;br&gt;&lt;/span&gt;" style="text;html=1;align=center;verticalAlign=middle;whiteSpace=wrap;rounded=0;" vertex="1" parent="1">
          <mxGeometry x="580" y="510" width="160" height="100" as="geometry" />
        </mxCell>
        <mxCell id="R8ICD43r1_GA5q7lz1Dn-60" value="" style="rounded=0;whiteSpace=wrap;html=1;" vertex="1" parent="1">
          <mxGeometry x="875" y="320" width="120" height="20" as="geometry" />
        </mxCell>
        <mxCell id="R8ICD43r1_GA5q7lz1Dn-61" value="&lt;span style=&quot;font-size: 16px;&quot;&gt;文件上传&lt;/span&gt;" style="text;html=1;align=center;verticalAlign=middle;whiteSpace=wrap;rounded=0;" vertex="1" parent="1">
          <mxGeometry x="895" y="270" width="80" height="30" as="geometry" />
        </mxCell>
        <mxCell id="R8ICD43r1_GA5q7lz1Dn-64" value="显示用户名" style="rounded=0;whiteSpace=wrap;html=1;" vertex="1" parent="1">
          <mxGeometry x="760" y="90" width="170" height="30" as="geometry" />
        </mxCell>
        <mxCell id="R8ICD43r1_GA5q7lz1Dn-65" value="登出" style="rounded=0;whiteSpace=wrap;html=1;" vertex="1" parent="1">
          <mxGeometry x="950" y="90" width="90" height="30" as="geometry" />
        </mxCell>
        <mxCell id="R8ICD43r1_GA5q7lz1Dn-90" value="&lt;span style=&quot;font-size: 16px;&quot;&gt;上传&lt;/span&gt;" style="rounded=0;whiteSpace=wrap;html=1;fillColor=#dae8fc;strokeColor=#6c8ebf;" vertex="1" parent="1">
          <mxGeometry x="890" y="365" width="90" height="30" as="geometry" />
        </mxCell>
        <mxCell id="R8ICD43r1_GA5q7lz1Dn-92" value="" style="rounded=0;whiteSpace=wrap;html=1;" vertex="1" parent="1">
          <mxGeometry x="30" y="730" width="490" height="590" as="geometry" />
        </mxCell>
        <mxCell id="R8ICD43r1_GA5q7lz1Dn-93" value="&lt;span style=&quot;font-size: 16px;&quot;&gt;图. Logo&lt;/span&gt;" style="rounded=0;whiteSpace=wrap;html=1;" vertex="1" parent="1">
          <mxGeometry x="350" y="830" width="100" height="40" as="geometry" />
        </mxCell>
        <mxCell id="R8ICD43r1_GA5q7lz1Dn-94" value="xxx平台" style="text;html=1;align=center;verticalAlign=middle;whiteSpace=wrap;rounded=0;" vertex="1" parent="1">
          <mxGeometry x="375" y="1205" width="60" height="30" as="geometry" />
        </mxCell>
        <mxCell id="R8ICD43r1_GA5q7lz1Dn-95" value="版权所有@xxx大学" style="text;html=1;align=center;verticalAlign=middle;whiteSpace=wrap;rounded=0;" vertex="1" parent="1">
          <mxGeometry x="375" y="1235" width="110" height="30" as="geometry" />
        </mxCell>
        <mxCell id="R8ICD43r1_GA5q7lz1Dn-96" value="&lt;span style=&quot;font-size: 16px;&quot;&gt;图&lt;/span&gt;" style="rounded=0;whiteSpace=wrap;html=1;" vertex="1" parent="1">
          <mxGeometry x="90" y="920" width="140" height="150" as="geometry" />
        </mxCell>
        <mxCell id="R8ICD43r1_GA5q7lz1Dn-97" value="&lt;span style=&quot;font-size: 16px;&quot;&gt;外部连接&lt;br&gt;外部连接&lt;br&gt;外部连接&lt;br&gt;&lt;/span&gt;" style="text;html=1;align=center;verticalAlign=middle;whiteSpace=wrap;rounded=0;" vertex="1" parent="1">
          <mxGeometry x="50" y="1160" width="160" height="100" as="geometry" />
        </mxCell>
        <mxCell id="R8ICD43r1_GA5q7lz1Dn-99" value="&lt;span style=&quot;font-size: 16px;&quot;&gt;文件处理成功&lt;/span&gt;" style="text;html=1;align=center;verticalAlign=middle;whiteSpace=wrap;rounded=0;" vertex="1" parent="1">
          <mxGeometry x="335" y="900" width="115" height="30" as="geometry" />
        </mxCell>
        <mxCell id="R8ICD43r1_GA5q7lz1Dn-100" value="显示用户名" style="rounded=0;whiteSpace=wrap;html=1;" vertex="1" parent="1">
          <mxGeometry x="230" y="740" width="170" height="30" as="geometry" />
        </mxCell>
        <mxCell id="R8ICD43r1_GA5q7lz1Dn-101" value="登出" style="rounded=0;whiteSpace=wrap;html=1;" vertex="1" parent="1">
          <mxGeometry x="420" y="740" width="90" height="30" as="geometry" />
        </mxCell>
        <mxCell id="R8ICD43r1_GA5q7lz1Dn-102" value="&lt;span style=&quot;font-size: 16px;&quot;&gt;显示标注结果&lt;/span&gt;" style="rounded=0;whiteSpace=wrap;html=1;fillColor=#dae8fc;strokeColor=#6c8ebf;" vertex="1" parent="1">
          <mxGeometry x="326.86" y="960" width="123.14" height="30" as="geometry" />
        </mxCell>
        <mxCell id="R8ICD43r1_GA5q7lz1Dn-105" value="" style="endArrow=none;html=1;rounded=0;entryX=0.857;entryY=0.576;entryDx=0;entryDy=0;entryPerimeter=0;" edge="1" parent="1">
          <mxGeometry width="50" height="50" relative="1" as="geometry">
            <mxPoint x="308.47" y="1024.5688888888888" as="sourcePoint" />
            <mxPoint x="468.39999999999986" y="1024.41" as="targetPoint" />
          </mxGeometry>
        </mxCell>
        <mxCell id="R8ICD43r1_GA5q7lz1Dn-106" value="&lt;span style=&quot;font-size: 16px;&quot;&gt;获取txt&lt;/span&gt;" style="rounded=0;whiteSpace=wrap;html=1;fillColor=#ffe6cc;strokeColor=#d79b00;" vertex="1" parent="1">
          <mxGeometry x="290" y="1050" width="90" height="30" as="geometry" />
        </mxCell>
        <mxCell id="R8ICD43r1_GA5q7lz1Dn-107" value="&lt;span style=&quot;font-size: 16px;&quot;&gt;获取jsonl&lt;/span&gt;" style="rounded=0;whiteSpace=wrap;html=1;fillColor=#ffe6cc;strokeColor=#d79b00;" vertex="1" parent="1">
          <mxGeometry x="395" y="1050" width="90" height="30" as="geometry" />
        </mxCell>
      </root>
    </mxGraphModel>
  </diagram>
</mxfile>
